<?xml version="1.0" encoding="utf-8"?>
<!-- Generator: Adobe Illustrator 16.0.3, SVG Export Plug-In . SVG Version: 6.00 Build 0)  -->
<!DOCTYPE svg PUBLIC "-//W3C//DTD SVG 1.1//EN" "http://www.w3.org/Graphics/SVG/1.1/DTD/svg11.dtd">
<svg version="1.1" xmlns="http://www.w3.org/2000/svg" xmlns:xlink="http://www.w3.org/1999/xlink" x="0px" y="0px"
	 width="8596.941px" height="3000px" viewBox="0 0 8596.941 3000" enable-background="new 0 0 8596.941 3000" xml:space="preserve">
<g id="Ebene_2">
	<rect fill="#76B834" width="8596.941" height="3000"/>
	<g>
		<path fill="#FFFFFF" d="M474.865,1125.697H209.184v-95.904H855.89v95.904H588.913V1903.3H474.865V1125.697z"/>
		<path fill="#FFFFFF" d="M1415.757,1732.227c0,64.801,1.296,121.825,5.184,171.073h-101.088l-6.48-102.384h-2.592
			c-29.808,50.543-95.904,116.64-207.361,116.64c-98.497,0-216.433-54.433-216.433-274.753v-366.77h114.049v347.33
			c0,119.232,36.288,199.584,139.968,199.584c76.464,0,129.601-53.137,150.337-103.68c6.48-16.849,10.368-37.584,10.368-58.32
			v-384.914h114.049V1732.227z"/>
		<path fill="#FFFFFF" d="M1604.964,1471.73c0-73.872-1.296-137.376-5.184-195.697h99.792l3.888,123.121h5.184
			c28.512-84.24,97.201-137.376,173.665-137.376c12.96,0,22.032,1.296,32.4,3.888v107.569c-11.664-2.592-23.328-3.888-38.88-3.888
			c-80.353,0-137.377,60.912-152.929,146.449c-2.592,15.551-5.184,33.695-5.184,53.136V1903.3h-112.752V1471.73z"/>
		<path fill="#FFFFFF" d="M2033.932,1445.81c0-64.8-1.296-117.937-5.184-169.777h101.088l6.48,103.681h2.592
			c31.104-59.617,103.68-117.937,207.361-117.937c86.832,0,221.617,51.84,221.617,266.977V1903.3h-114.048v-361.585
			c0-101.089-37.584-185.329-145.153-185.329c-75.168,0-133.488,53.136-152.928,116.64c-5.184,14.256-7.776,33.697-7.776,53.136
			V1903.3h-114.048V1445.81z"/>
		<path fill="#FFFFFF" d="M2880.211,1099.776c1.296,38.88-27.217,69.984-72.577,69.984c-40.176,0-68.688-31.104-68.688-69.984
			c0-40.176,29.808-71.28,71.28-71.28C2852.994,1028.496,2880.211,1059.601,2880.211,1099.776z M2753.202,1903.3v-627.267h114.049
			V1903.3H2753.202z"/>
		<path fill="#FFFFFF" d="M3119.962,1610.402c2.593,154.225,101.089,217.729,215.137,217.729
			c81.648,0,130.897-14.256,173.665-32.399l19.44,81.648c-40.177,18.144-108.864,38.88-208.657,38.88
			c-193.104,0-308.449-127.008-308.449-316.225c0-189.217,111.457-338.258,294.193-338.258
			c204.769,0,259.201,180.145,259.201,295.489c0,23.327-2.592,41.472-3.888,53.136H3119.962z M3454.332,1528.754
			c1.296-72.576-29.809-185.329-158.113-185.329c-115.345,0-165.889,106.272-174.961,185.329H3454.332z"/>
		<path fill="#FFFFFF" d="M3705.743,1471.73c0-73.872-1.296-137.376-5.184-195.697h99.792l3.888,123.121h5.185
			c28.512-84.24,97.2-137.376,173.664-137.376c12.96,0,22.032,1.296,32.4,3.888v107.569c-11.664-2.592-23.328-3.888-38.88-3.888
			c-80.353,0-137.377,60.912-152.929,146.449c-2.592,15.551-5.185,33.695-5.185,53.136V1903.3h-112.752V1471.73z"/>
	</g>
</g>
<g id="Ebene_3">
	<g>
		<path fill="#FFFFFF" d="M6285.57,1628.547l-90.72,274.752H6078.21l296.786-873.507h136.08l298.081,873.507h-120.528
			l-93.313-274.752H6285.57z M6571.988,1540.418l-85.537-251.425c-19.439-57.024-32.399-108.864-45.359-159.409h-2.592
			c-12.961,51.84-27.217,104.977-44.064,158.113l-85.537,252.721H6571.988z"/>
		<path fill="#FFFFFF" d="M6929.693,1480.802c0-80.353-2.592-145.153-5.184-204.769h102.385l5.184,107.568h2.592
			c46.656-76.464,120.529-121.824,222.913-121.824c151.633,0,265.681,128.304,265.681,318.817
			c0,225.506-137.376,336.961-285.121,336.961c-82.943,0-155.52-36.287-193.104-98.496h-2.592v340.85h-112.753V1480.802z
			 M7042.446,1647.986c0,16.848,2.592,32.4,5.185,46.656c20.735,79.057,89.424,133.488,171.072,133.488
			c120.528,0,190.513-98.496,190.513-242.354c0-125.712-66.097-233.28-186.625-233.28c-77.761,0-150.337,55.728-172.368,141.265
			c-3.889,14.256-7.776,31.104-7.776,46.656V1647.986z"/>
		<path fill="#FFFFFF" d="M7667.098,1480.802c0-80.353-2.592-145.153-5.184-204.769h102.385l5.184,107.568h2.592
			c46.656-76.464,120.529-121.824,222.913-121.824c151.633,0,265.681,128.304,265.681,318.817
			c0,225.506-137.376,336.961-285.121,336.961c-82.943,0-155.52-36.287-193.104-98.496h-2.592v340.85h-112.753V1480.802z
			 M7779.851,1647.986c0,16.848,2.592,32.4,5.185,46.656c20.735,79.057,89.424,133.488,171.072,133.488
			c120.528,0,190.513-98.496,190.513-242.354c0-125.712-66.097-233.28-186.625-233.28c-77.761,0-150.337,55.728-172.368,141.265
			c-3.889,14.256-7.776,31.104-7.776,46.656V1647.986z"/>
	</g>
</g>
<g id="Ebene_1">
	<g>
		<g>
			<path fill-rule="evenodd" clip-rule="evenodd" fill="none" d="M4019.43,1559.535c0-455.839,0.133-911.681-0.492-1367.52
				c-0.024-18.11,4.943-20.851,21.627-20.84c679.14,0.462,1358.279,0.485,2037.42-0.092c18.109-0.016,20.846,4.938,20.838,21.623
				c-0.443,911.68-0.461,1823.358,0.092,2735.04c0.012,18.107-4.936,20.85-21.62,20.838c-679.14-0.461-1358.28-0.484-2037.419,0.094
				c-18.109,0.016-20.861-4.936-20.843-21.623C4019.53,2471.217,4019.43,2015.375,4019.43,1559.535z M5084.486,2514.525
				c11.895-38.707,23.395-76.814,7.09-117.305c-5.082-12.621-5.613-25.766,4.256-37.016c11.653-13.287,23.086-26.82,35.47-39.402
				c24.227-24.615,29.216-23.092,52.099,3.764c33.525,39.35,62.433,81.9,91.229,124.623c3.275,4.859,6.998,12.316,14.189,8.832
				c8.131-3.939,1.644-10.527,0.398-16.023c-12.873-56.842-32.777-111.77-41.033-170.016
				c-9.409-66.383,7.709-121.725,54.034-169.494c35.897-37.014,48.507-80.781,41.564-132.828
				c-10.168-76.234-34.731-149.379-45.022-225.494c-1.668-12.338,0.504-24.492-1.952-36.635c-1.172-5.795,2.461-9.006,8.269-6.285
				c31.122,14.572,64.341,26.037,81.604,59.91c36.049,70.732,67.615,142.986,82.671,221.621c5.457,28.508-2.775,64.18,18.108,84.225
				c34.97,33.564,46.655,71.332,44.202,116.883c-0.275,5.137,2.445,10.434,3.756,15.66c10.068,40.15,24.26,79.783,29.352,120.553
				c11.117,89.027,13.244,179.152,30.393,267.496c4.832,24.885-2.387,55.652,13.378,73.832
				c30.506,35.176,58.671,76.902,111.44,84.051c16.386,2.219,33.896,11.615,47.938-3.512c14.291-15.396,10.408-34.402,5.602-52.609
				c-1.359-5.156-4.119-9.934-6.03-14.959c-7.95-20.904-19.275-40.137-29.141-60.098c-19.578-39.617-21.411-82.625-19.745-125.967
				c1.475-38.389,8.166-77.682-2.197-114.895c-9.73-34.932-10.8-69.553-10.515-104.877c0.312-38.527-2.7-76.773-7.03-115.086
				c-2.662-23.557-10.371-47.211-5.793-71c4.411-22.916-2.97-42.604-12.848-61.736c-5.694-11.033-11.256-21.924-13.941-34.002
				c-11.327-50.926-16.314-102.924-25.153-154.291c-9.544-55.459-21.95-110.32-37.259-163.988
				c-11.703-41.025-28.648-80.918-39.334-122.588c-11.808-46.046-19.944-92.996-39.797-136.903
				c-7.82-17.293-10.441-37.195-5.864-56.647c9.184-39.024,10.408-79.201,17.331-118.412c3.519-19.919,0.08-46.911,21.651-57.726
				c30.788-15.432,60.217-33.488,93.395-44.95c50.035-17.284,98.978-38.067,140.162-73.297
				c14.154-12.107,19.708-25.516,12.37-42.678c-16.635-38.902-32.07-78.644-62.803-109.407
				c-15.799-15.813-15.086-32.983-4.605-50.479c29.722-49.626,53.455-102.479,74.18-155.945
				c23.611-60.919,56.683-109.723,118.602-135.487c8.52-3.546,17.09-9.452,17.084-20.027c-0.009-17.059,12.571-23.898,23.983-31.25
				c14.852-9.567,30.502-17.898,45.876-26.642c8.041-4.573,17.682-8.139,14.102-20.379c-3.01-10.292-5.584-20.657-18.979-23.486
				c-9.29-1.962-17.796-3.594-26.895,0.616c-10.548,4.882-22.55,10.44-32.45,1.128c-11.532-10.851-2.033-22.84,1.782-34.124
				c3.739-11.061,8.714-21.562,17.142-29.775c26.396-25.728,31.354-56.985,24.051-91.43c-1.823-8.597,0.174-19.789-11.401-23.125
				c-10.223-2.948-16.708,4.492-24.372,9.878c-47.979,33.729-80.151,82.503-118.661,125.076
				c-27.183,30.05-49.612,63.408-53.713,107.079c-3.351,35.699-22.145,67.187-43.614,95.455
				c-43.205,56.881-87.756,112.75-132.238,168.65c-20.771,26.103-39.916,29.795-68.744,13.928
				c-20.7-11.395-42.823-15.845-66.012-18.807c-44.568-5.692-91.088-3.204-131.386-29.049c-5.611-3.6-13.051-6.082-19.659-6.113
				c-44.956-0.219-40.055-17.867-37.457-53.013c0.561-7.584,4.196-14.92,4.931-22.516c8.933-92.402-16.584-145.717-103.241-175.65
				c-40.543-14.004-85.672-9.265-126.926,6.973c-21.045,8.283-39.809,22.418-47.867,44.404
				c-21.482,58.598-30.398,118.051-5.172,178.312c1.67,3.991,2.547,9.475,1.195,13.364c-5.46,15.709,2.69,32.02-3.055,47.774
				c-2.127,5.833,0.039,14.146,6.506,15.692c26.928,6.427,33.248,26.285,35.287,49.933c0.555,6.454,6.295,10.143,10.342,14.785
				c14.9,17.097,14.273,32.383-2.309,47.567c-26.227,24.016-49.184,50.888-69.602,79.826
				c-22.982,32.572-44.653,66.067-67.427,98.789c-7.357,10.571-19.077,16.979-29.172,5.926
				c-12.884-14.106-26.779-12.491-42.103-8.755c-27.619,6.733-55.721,11.688-83.914,7.315c-32.197-4.992-61.629,6.398-69.261,37.45
				c-12.28,49.96-34.169,94.75-58.19,139.565c-15.699,29.29-30.988,56.2-63.904,69.059c-13.421,5.243-27.586,10.56-38.168,21.14
				c-18.912,18.911-41.502,27.765-68.12,29.692c-12.445,0.9-29.306-1.773-36.161,11.033c-13.927,26.01-40.127,46.529-33.317,82.375
				c6.325,33.283-6.094,60.847-33.043,83.376c-32.455,27.133-61.284,58.154-87.029,92.051
				c-47.892,63.053-93.417,127.916-147.813,185.957c-30.128,32.146-46.835,73.551-67.929,111.771
				c-3.323,6.02-6.554,13.922-1.012,19.516c7.956,8.023,11.675-2.611,16.51-6.031c11.679-8.26,12.915,0.264,14.24,8.396
				c3.459,21.236,6.71,42.508,9.968,63.773c1.255,8.184,0.188,18.414,12.697,17.99c13.942-0.469,12.045-10.83,11.663-20.248
				c-0.501-12.303-0.929-24.641-0.566-36.941c0.188-6.373-2.129-16.34,7.006-16.953c7.81-0.525,6.353,9.154,7.47,14.717
				c2.272,11.303,3.354,22.844,5.627,34.145c1.597,7.949,5.697,15.301,14.891,15.061c9.179-0.24,9.417-8.76,10.59-15.453
				c1.196-6.814,1.396-13.824,2.881-20.563c1.464-6.635,2.325-14.861,9.951-17.059c8.568-2.467,11.421,5.744,15.472,11.133
				c5.547,7.383,11,14.855,16.901,21.947c3.22,3.873,6.305,10.781,12.532,7.197c5.062-2.916,4.064-9.918,2.898-14.961
				c-5.901-25.52-12.105-51.018-27.635-72.895c-8.1-11.408-2.666-15.143,8.624-15.209c3.783-0.02,7.608,1.07,11.353,1.924
				c7.642,1.746,14.494,0.15,17.4-7.338c3.544-9.129-4.432-11.92-10.586-14.818c-9.74-4.586-19.784-8.525-29.532-13.096
				c-11.825-5.543-16.443-13.023-7.395-25.313c9.57-13,16.221-28.717,27.544-39.766c55.622-54.271,99.831-118.781,156.042-172.469
				c10.707-10.223,20.449-13.768,31.266-1.357c13.911,15.961,32.13,27.115,49.726,37.129c19.125,10.883,38.818,24.207,64.35,19.861
				c24.878-4.234,31.351,3.543,23.609,28.801c-10.728,34.992-14.969,70.348-15.758,106.791c-0.497,22.928-4.99,45.9-9.179,68.578
				c-6.519,35.295-27.855,57.799-60.66,72.74c-26.294,11.979-47.88-0.018-71.115-6.557c-6.33-1.783-13.616-7.152-17.988,2.088
				c-3.582,7.57,1.714,13.113,6.981,17.893c8.727,7.914,19.44,12.314,30.166,16.65c20.705,8.371,33.423,21.803,37.216,45.488
				c3.541,22.111,7.399,43.871,6.559,66.354c-0.238,6.365-2.319,16.32,6.968,16.93c8.318,0.545,9.347-9.248,10.597-15.713
				c2.327-12.049,2.44-24.578,5.363-36.441c4.834-19.615,11.684-21.367,25.583-7.406c14.653,14.715,29.103,29.645,43.245,44.85
				c5.601,6.02,10.88,11.01,19.786,7.363c9.828-4.027,11.046-12.078,9.46-21.037c-2.171-12.268-7.364-23.348-13.61-34.111
				c-7.147-12.322-2.779-18.873,11.204-19.422c4.615-0.184,9.246-0.111,13.851-0.418c10.31-0.691,21.654-2.082,22.883-14.555
				c1.099-11.146-10.202-11.496-17.899-14.266c-5.787-2.082-11.418-4.66-17.299-6.418c-15.067-4.506-18.655-13.186-13.171-28.104
				c32.634-88.768,51.025-181.242,71-273.344c5.119-23.605,1.509-50.234,19.797-69.951c18.507-19.949,26.743-46.02,38.559-69.225
				c20.534-40.334,44.595-78.287,67.522-117.034c5.798-9.797,15.548-11.58,26.321-9.919c11.438,1.764,24.438,4.963,33.24-3.871
				c18.389-18.456,38.516-9.93,58.545-6.504c10.757,1.838,13.172,9.658,11.782,19.04c-3.764,25.41,1.757,50.57,2.123,75.88
				c0.39,26.967,25.479,45.043,52.509,40.578c9.159-1.514,14.546,1.715,12.944,10.453c-6.147,33.537-1.186,67.637-5.188,101.012
				c-6.196,51.672-29.509,98.145-50.533,144.971c-21.628,48.174-59.71,87.186-77.711,137.592c-1.933,5.41-7.417,9.684-11.616,14.141
				c-38.633,41.023-70.129,87.535-98.915,135.469c-47.095,78.424-92.531,157.756-154.08,226.256
				c-2.538,2.824-4.781,6.004-6.68,9.295c-33.165,57.525-75.417,107.596-123.587,153.094
				c-23.302,22.008-40.637,47.928-43.203,81.441c-0.57,7.455-1.521,12.762,8.585,15.012c50.666,11.279,92.901-11.266,135.337-32.881
				c3.384-1.723,5.649-7.268,6.769-11.48c2.473-9.307,5.095-18.586,16.09-20.133c12.455-1.756,12.029,8.924,14.356,16.725
				c0.386,1.291,1.788,3.002,2.968,3.229c22.276,4.275,45.049,3.814,66.063-3.227c14.577-4.883,0.114-18.881,2.567-28.525
				c0.552-2.17,0.018-4.6,0.119-6.904c0.287-6.426,1.811-12.654,8.06-15.547c7.705-3.57,10.699,3.074,14.476,7.846
				c12.184,15.387,30.966,19.111,47.76,25.828c12.271,4.91,22.058,1.492,31.721-10.305c23.293-28.43,33.592-63.893,54.117-93.604
				c19.805-28.674,24.545-64.674,44.878-93.043c36.349-50.717,66.214-104.979,90.438-162.439
				c4.692-11.131,13.595-19.893,25.22-21.406c10.371-1.35,14.891,9.514,19.513,17.324c10.178,17.205,19.082,35.209,29.927,51.967
				c20.309,31.381,33.6,63.613,14.673,100.18c-21.017,40.605-35.854,85.998-80.891,108.885c-13.777,7-20.543,19.664-27.932,32.639
				c-12.625,22.172-10.496,52.291-30.417,68.871c-28.886,24.047-23.691,54.064-21.866,84.086
				c1.072,17.604,10.301,32.555,29.122,33.412c18.243,0.832,38.855,3.699,50.489-18.117c19.359-36.301,51.908-63.477,68.472-102.605
				c6.743-15.932,18.997-30.205,24.273-48.18c7.021-23.918,26.713-43.404,25.097-70.645c-0.154-2.609,2.192-5.883,4.27-7.955
				c1.995-1.994,5.208-4.033,7.779-3.902c4.501,0.225,6.742,4.42,5.696,8.324c-7.339,27.379,11.397,52.471,6.733,79.645
				C5076.265,2505.375,5075.755,2511.668,5084.486,2514.525z"/>
			<path fill-rule="evenodd" clip-rule="evenodd" d="M5084.486,2514.525c-8.731-2.857-8.222-9.15-7.399-13.947
				c4.664-27.174-14.072-52.266-6.733-79.645c1.046-3.904-1.195-8.1-5.696-8.324c-2.571-0.131-5.784,1.908-7.779,3.902
				c-2.077,2.072-4.424,5.346-4.27,7.955c1.616,27.24-18.076,46.727-25.097,70.645c-5.276,17.975-17.53,32.248-24.273,48.18
				c-16.564,39.129-49.113,66.305-68.472,102.605c-11.634,21.816-32.246,18.949-50.489,18.117
				c-18.821-0.857-28.05-15.809-29.122-33.412c-1.825-30.021-7.02-60.039,21.866-84.086c19.921-16.58,17.792-46.699,30.417-68.871
				c7.389-12.975,14.154-25.639,27.932-32.639c45.037-22.887,59.874-68.279,80.891-108.885
				c18.927-36.566,5.636-68.799-14.673-100.18c-10.845-16.758-19.749-34.762-29.927-51.967c-4.622-7.811-9.142-18.674-19.513-17.324
				c-11.625,1.514-20.527,10.275-25.22,21.406c-24.225,57.461-54.09,111.723-90.438,162.439
				c-20.333,28.369-25.073,64.369-44.878,93.043c-20.525,29.711-30.824,65.174-54.117,93.604
				c-9.663,11.797-19.45,15.215-31.721,10.305c-16.793-6.717-35.576-10.441-47.76-25.828c-3.776-4.771-6.771-11.416-14.476-7.846
				c-6.249,2.893-7.772,9.121-8.06,15.547c-0.101,2.305,0.433,4.734-0.119,6.904c-2.453,9.645,12.01,23.643-2.567,28.525
				c-21.013,7.041-43.786,7.502-66.063,3.227c-1.18-0.227-2.582-1.938-2.968-3.229c-2.327-7.801-1.902-18.48-14.356-16.725
				c-10.995,1.547-13.617,10.826-16.09,20.133c-1.119,4.213-3.385,9.758-6.769,11.48c-42.436,21.615-84.671,44.16-135.337,32.881
				c-10.105-2.25-9.155-7.557-8.585-15.012c2.566-33.514,19.901-59.434,43.203-81.441c48.171-45.498,90.423-95.568,123.587-153.094
				c1.898-3.291,4.142-6.471,6.68-9.295c61.549-68.5,106.985-147.832,154.08-226.256c28.786-47.934,60.282-94.445,98.915-135.469
				c4.199-4.457,9.683-8.73,11.616-14.141c18.001-50.406,56.083-89.418,77.711-137.592c21.023-46.826,44.337-93.299,50.533-144.971
				c4.003-33.375-0.959-67.475,5.188-101.012c1.602-8.738-3.786-11.967-12.944-10.453c-27.03,4.465-52.119-13.611-52.509-40.578
				c-0.366-25.311-5.887-50.47-2.123-75.88c1.39-9.382-1.025-17.201-11.782-19.04c-20.03-3.426-40.157-11.952-58.545,6.504
				c-8.801,8.834-21.801,5.635-33.24,3.871c-10.773-1.661-20.523,0.122-26.321,9.919c-22.928,38.747-46.989,76.7-67.522,117.034
				c-11.815,23.205-20.051,49.275-38.559,69.225c-18.288,19.717-14.679,46.346-19.797,69.951
				c-19.974,92.102-38.365,184.576-71,273.344c-5.484,14.918-1.896,23.598,13.171,28.104c5.881,1.758,11.512,4.336,17.299,6.418
				c7.697,2.77,18.998,3.119,17.899,14.266c-1.229,12.473-12.573,13.863-22.883,14.555c-4.605,0.307-9.235,0.234-13.851,0.418
				c-13.983,0.549-18.352,7.1-11.204,19.422c6.246,10.764,11.438,21.844,13.61,34.111c1.586,8.959,0.368,17.01-9.46,21.037
				c-8.906,3.646-14.185-1.344-19.786-7.363c-14.142-15.205-28.592-30.135-43.245-44.85c-13.899-13.961-20.749-12.209-25.583,7.406
				c-2.923,11.863-3.036,24.393-5.363,36.441c-1.25,6.465-2.278,16.258-10.597,15.713c-9.287-0.609-7.207-10.564-6.968-16.93
				c0.84-22.482-3.019-44.242-6.559-66.354c-3.793-23.686-16.511-37.117-37.216-45.488c-10.726-4.336-21.438-8.736-30.166-16.65
				c-5.267-4.779-10.563-10.322-6.981-17.893c4.372-9.24,11.658-3.871,17.988-2.088c23.235,6.539,44.821,18.535,71.115,6.557
				c32.805-14.941,54.141-37.445,60.66-72.74c4.189-22.678,8.682-45.65,9.179-68.578c0.79-36.443,5.03-71.799,15.758-106.791
				c7.742-25.258,1.269-33.035-23.609-28.801c-25.532,4.346-45.224-8.979-64.35-19.861c-17.595-10.014-35.815-21.168-49.726-37.129
				c-10.817-12.41-20.56-8.865-31.266,1.357c-56.211,53.688-100.421,118.197-156.042,172.469
				c-11.323,11.049-17.974,26.766-27.544,39.766c-9.048,12.289-4.431,19.77,7.395,25.313c9.748,4.57,19.792,8.51,29.532,13.096
				c6.155,2.898,14.13,5.689,10.586,14.818c-2.906,7.488-9.759,9.084-17.4,7.338c-3.745-0.854-7.569-1.943-11.353-1.924
				c-11.29,0.066-16.724,3.801-8.624,15.209c15.53,21.877,21.734,47.375,27.635,72.895c1.167,5.043,2.164,12.045-2.898,14.961
				c-6.227,3.584-9.312-3.324-12.532-7.197c-5.901-7.092-11.354-14.564-16.901-21.947c-4.05-5.389-6.904-13.6-15.472-11.133
				c-7.626,2.197-8.487,10.424-9.951,17.059c-1.485,6.738-1.685,13.748-2.881,20.563c-1.173,6.693-1.411,15.213-10.59,15.453
				c-9.194,0.24-13.294-7.111-14.891-15.061c-2.273-11.301-3.355-22.842-5.627-34.145c-1.117-5.563,0.34-15.242-7.47-14.717
				c-9.135,0.613-6.818,10.58-7.006,16.953c-0.362,12.301,0.065,24.639,0.566,36.941c0.382,9.418,2.279,19.779-11.663,20.248
				c-12.509,0.424-11.442-9.807-12.697-17.99c-3.258-21.266-6.509-42.537-9.968-63.773c-1.326-8.133-2.562-16.656-14.24-8.396
				c-4.835,3.42-8.554,14.055-16.51,6.031c-5.542-5.594-2.312-13.496,1.012-19.516c21.094-38.221,37.801-79.625,67.929-111.771
				c54.396-58.041,99.921-122.904,147.813-185.957c25.745-33.896,54.574-64.918,87.029-92.051
				c26.95-22.529,39.368-50.094,33.043-83.376c-6.81-35.846,19.391-56.365,33.317-82.375c6.855-12.807,23.716-10.133,36.161-11.033
				c26.618-1.927,49.208-10.781,68.12-29.692c10.582-10.58,24.747-15.897,38.168-21.14c32.917-12.858,48.206-39.769,63.904-69.059
				c24.021-44.815,45.91-89.605,58.19-139.565c7.632-31.052,37.064-42.442,69.261-37.45c28.192,4.372,56.295-0.582,83.914-7.315
				c15.324-3.736,29.219-5.351,42.103,8.755c10.095,11.054,21.814,4.645,29.172-5.926c22.774-32.722,44.445-66.217,67.427-98.789
				c20.418-28.938,43.375-55.81,69.602-79.826c16.582-15.184,17.209-30.47,2.309-47.567c-4.047-4.643-9.787-8.331-10.342-14.785
				c-2.039-23.648-8.359-43.506-35.287-49.933c-6.467-1.545-8.633-9.858-6.506-15.692c5.745-15.755-2.405-32.065,3.055-47.774
				c1.352-3.889,0.475-9.373-1.195-13.364c-25.227-60.261-16.31-119.714,5.172-178.312c8.059-21.986,26.822-36.121,47.867-44.404
				c41.254-16.238,86.383-20.978,126.926-6.973c86.657,29.933,112.174,83.248,103.241,175.65c-0.734,7.595-4.37,14.931-4.931,22.516
				c-2.598,35.146-7.499,52.794,37.457,53.013c6.608,0.032,14.048,2.513,19.659,6.113c40.298,25.845,86.817,23.357,131.386,29.049
				c23.188,2.962,45.312,7.413,66.012,18.807c28.828,15.868,47.974,12.175,68.744-13.928c44.482-55.9,89.033-111.769,132.238-168.65
				c21.47-28.268,40.264-59.755,43.614-95.455c4.101-43.671,26.53-77.028,53.713-107.079
				c38.51-42.573,70.683-91.347,118.661-125.076c7.664-5.387,14.149-12.827,24.372-9.878c11.575,3.336,9.578,14.528,11.401,23.125
				c7.304,34.445,2.346,65.702-24.051,91.43c-8.428,8.214-13.402,18.715-17.142,29.775c-3.815,11.284-13.314,23.273-1.782,34.124
				c9.9,9.313,21.902,3.754,32.45-1.128c9.099-4.209,17.604-2.578,26.895-0.616c13.396,2.829,15.97,13.194,18.979,23.486
				c3.58,12.24-6.061,15.807-14.102,20.379c-15.374,8.744-31.024,17.075-45.876,26.642c-11.412,7.352-23.992,14.192-23.983,31.25
				c0.006,10.576-8.564,16.481-17.084,20.027c-61.919,25.764-94.99,74.568-118.602,135.487
				c-20.725,53.466-44.458,106.319-74.18,155.945c-10.48,17.497-11.193,34.666,4.605,50.479
				c30.732,30.763,46.168,70.505,62.803,109.407c7.338,17.162,1.784,30.571-12.37,42.678
				c-41.185,35.23-90.127,56.013-140.162,73.297c-33.178,11.462-62.606,29.518-93.395,44.95
				c-21.571,10.814-18.133,37.806-21.651,57.726c-6.923,39.211-8.147,79.388-17.331,118.412
				c-4.577,19.452-1.956,39.354,5.864,56.647c19.853,43.908,27.989,90.857,39.797,136.903
				c10.686,41.67,27.631,81.563,39.334,122.588c15.309,53.668,27.715,108.529,37.259,163.988
				c8.839,51.367,13.826,103.365,25.153,154.291c2.686,12.078,8.247,22.969,13.941,34.002c9.878,19.133,17.259,38.82,12.848,61.736
				c-4.578,23.789,3.131,47.443,5.793,71c4.33,38.313,7.342,76.559,7.03,115.086c-0.285,35.324,0.784,69.945,10.515,104.877
				c10.363,37.213,3.672,76.506,2.197,114.895c-1.666,43.342,0.167,86.35,19.745,125.967c9.865,19.961,21.19,39.193,29.141,60.098
				c1.911,5.025,4.671,9.803,6.03,14.959c4.807,18.207,8.689,37.213-5.602,52.609c-14.042,15.127-31.552,5.73-47.938,3.512
				c-52.77-7.148-80.935-48.875-111.44-84.051c-15.765-18.18-8.546-48.947-13.378-73.832
				c-17.148-88.344-19.275-178.469-30.393-267.496c-5.092-40.77-19.283-80.402-29.352-120.553
				c-1.311-5.227-4.031-10.523-3.756-15.66c2.453-45.551-9.232-83.318-44.202-116.883c-20.884-20.045-12.651-55.717-18.108-84.225
				c-15.056-78.635-46.622-150.889-82.671-221.621c-17.264-33.873-50.482-45.338-81.604-59.91c-5.808-2.721-9.44,0.49-8.269,6.285
				c2.456,12.143,0.284,24.297,1.952,36.635c10.291,76.115,34.854,149.26,45.022,225.494c6.942,52.047-5.667,95.814-41.564,132.828
				c-46.325,47.77-63.443,103.111-54.034,169.494c8.256,58.246,28.16,113.174,41.033,170.016c1.245,5.496,7.732,12.084-0.398,16.023
				c-7.191,3.484-10.914-3.973-14.189-8.832c-28.796-42.723-57.703-85.273-91.229-124.623
				c-22.883-26.855-27.872-28.379-52.099-3.764c-12.384,12.582-23.816,26.115-35.47,39.402c-9.869,11.25-9.338,24.395-4.256,37.016
				C5107.881,2437.711,5096.381,2475.818,5084.486,2514.525z M5118.952,1997.971c-2.149-8.203,2.851-18.266-5.577-23.691
				c-9.598-6.176-14.793,4.752-20.951,9.559c-7.473,5.836-15.951,9.146-24.542,12.506c-25.178,9.846-26.774,16.195-22.113,41.715
				c6.872,37.629,31.671,70.553,27.972,110.838c-0.911,9.912-0.477,22.191,12.493,23.645c11.354,1.27,14.977-10.125,17.002-18.744
				c7.433-31.631,24.26-61.111,16.467-96.24C5115.49,2038.574,5118.952,2017.887,5118.952,1997.971z"/>
			<path fill-rule="evenodd" clip-rule="evenodd" fill="none" d="M5118.952,1997.971c0,19.916-3.462,40.604,0.75,59.586
				c7.793,35.129-9.034,64.609-16.467,96.24c-2.025,8.619-5.647,20.014-17.002,18.744c-12.97-1.453-13.404-13.732-12.493-23.645
				c3.699-40.285-21.1-73.209-27.972-110.838c-4.661-25.52-3.064-31.869,22.113-41.715c8.591-3.359,17.069-6.67,24.542-12.506
				c6.158-4.807,11.354-15.734,20.951-9.559C5121.803,1979.705,5116.803,1989.768,5118.952,1997.971z"/>
		</g>
	</g>
</g>
</svg>
