<?xml version="1.0" encoding="utf-8"?>
<!-- Generator: Adobe Illustrator 16.0.3, SVG Export Plug-In . SVG Version: 6.00 Build 0)  -->
<!DOCTYPE svg PUBLIC "-//W3C//DTD SVG 1.1//EN" "http://www.w3.org/Graphics/SVG/1.1/DTD/svg11.dtd">
<svg version="1.1" xmlns="http://www.w3.org/2000/svg" xmlns:xlink="http://www.w3.org/1999/xlink" x="0px" y="0px"
	 width="8596.941px" height="3000px" viewBox="0 0 8596.941 3000" enable-background="new 0 0 8596.941 3000" xml:space="preserve">
<g id="Ebene_2">
	<rect fill="#76B834" width="8596.941" height="3000"/>
</g>
<g id="Ebene_3">
	<g>
		<path fill="#FFFFFF" d="M508.385,1154.574H242.704v-95.905h646.707v95.905H622.434v777.603H508.385V1154.574z"/>
		<path fill="#FFFFFF" d="M1449.277,1761.104c0,64.801,1.296,121.825,5.184,171.073h-101.088l-6.48-102.384h-2.592
			c-29.808,50.543-95.904,116.64-207.361,116.64c-98.497,0-216.433-54.433-216.433-274.753v-366.77h114.049v347.33
			c0,119.232,36.288,199.584,139.968,199.584c76.464,0,129.601-53.137,150.337-103.68c6.48-16.849,10.368-37.584,10.368-58.32
			V1304.91h114.049V1761.104z"/>
		<path fill="#FFFFFF" d="M1638.484,1474.687c0-64.8-1.296-117.937-5.184-169.777h101.088l6.48,103.681h2.592
			c31.104-59.616,103.68-117.937,207.361-117.937c86.832,0,221.617,51.84,221.617,266.977v374.546H2058.39v-361.585
			c0-101.089-37.584-185.329-145.153-185.329c-75.168,0-133.488,53.136-152.928,116.64c-5.184,14.257-7.776,33.697-7.776,53.137
			v377.138h-114.048V1474.687z"/>
		<path fill="#FFFFFF" d="M2484.763,1128.653c1.296,38.88-27.216,69.984-72.576,69.984c-40.176,0-68.688-31.104-68.688-69.984
			c0-40.176,29.808-71.28,71.28-71.28C2457.547,1057.373,2484.763,1088.478,2484.763,1128.653z M2357.755,1932.177V1304.91h114.048
			v627.267H2357.755z"/>
		<path fill="#FFFFFF" d="M2724.515,1639.279c2.593,154.225,101.089,217.729,215.137,217.729
			c81.648,0,130.897-14.256,173.665-32.399l19.44,81.648c-40.177,18.144-108.864,38.88-208.657,38.88
			c-193.104,0-308.449-127.008-308.449-316.225c0-189.217,111.457-338.258,294.193-338.258
			c204.769,0,259.201,180.145,259.201,295.489c0,23.328-2.592,41.472-3.888,53.136H2724.515z M3058.885,1557.631
			c1.296-72.576-29.809-185.328-158.113-185.328c-115.345,0-165.889,106.272-174.961,185.328H3058.885z"/>
		<path fill="#FFFFFF" d="M3310.296,1500.607c0-73.872-1.296-137.376-5.184-195.697h99.792l3.888,123.121h5.185
			c28.512-84.24,97.2-137.376,173.664-137.376c12.96,0,22.032,1.296,32.4,3.888v107.568c-11.664-2.592-23.328-3.888-38.88-3.888
			c-80.353,0-137.377,60.912-152.929,146.449c-2.592,15.551-5.185,33.695-5.185,53.136v334.369h-112.752V1500.607z"/>
	</g>
	<g>
		<path fill="#FFFFFF" d="M6207.29,1657.424l-90.72,274.753H5999.93l296.785-873.507h136.08l298.081,873.507h-120.528
			l-93.313-274.753H6207.29z M6493.707,1569.295l-85.536-251.425c-19.439-57.024-32.4-108.864-45.36-159.409h-2.592
			c-12.96,51.84-27.216,104.977-44.064,158.113l-85.536,252.721H6493.707z"/>
		<path fill="#FFFFFF" d="M6851.413,1509.68c0-80.353-2.592-145.153-5.184-204.77h102.384l5.185,107.568h2.592
			c46.656-76.464,120.528-121.824,222.913-121.824c151.632,0,265.681,128.304,265.681,318.816
			c0,225.506-137.376,336.962-285.121,336.962c-82.944,0-155.521-36.288-193.104-98.496h-2.592v340.849h-112.753V1509.68z
			 M6964.166,1676.863c0,16.849,2.592,32.4,5.184,46.656c20.736,79.057,89.424,133.488,171.072,133.488
			c120.529,0,190.513-98.496,190.513-242.353c0-125.712-66.096-233.281-186.624-233.281c-77.761,0-150.337,55.728-172.369,141.264
			c-3.888,14.256-7.775,31.104-7.775,46.656V1676.863z"/>
		<path fill="#FFFFFF" d="M7588.817,1509.68c0-80.353-2.592-145.153-5.184-204.77h102.384l5.185,107.568h2.592
			c46.656-76.464,120.528-121.824,222.913-121.824c151.632,0,265.681,128.304,265.681,318.816
			c0,225.506-137.376,336.962-285.121,336.962c-82.944,0-155.521-36.288-193.104-98.496h-2.592v340.849h-112.753V1509.68z
			 M7701.57,1676.863c0,16.849,2.592,32.4,5.184,46.656c20.736,79.057,89.424,133.488,171.072,133.488
			c120.529,0,190.513-98.496,190.513-242.353c0-125.712-66.096-233.281-186.624-233.281c-77.761,0-150.337,55.728-172.369,141.264
			c-3.888,14.256-7.775,31.104-7.775,46.656V1676.863z"/>
	</g>
</g>
<g id="Ebene_1">
	<g>
		<g>
			<path fill-rule="evenodd" clip-rule="evenodd" fill="none" d="M3794.951,1504.275c0-455.069,0.133-910.139-0.492-1365.208
				c-0.025-18.11,4.942-20.851,21.627-20.84c680.68,0.462,1361.358,0.485,2042.039-0.092c18.11-0.016,20.847,4.938,20.838,21.623
				c-0.442,910.14-0.461,1820.278,0.092,2730.418c0.012,18.107-4.936,20.85-21.619,20.84
				c-680.682-0.463-1361.359-0.486-2042.04,0.092c-18.11,0.016-20.862-4.936-20.844-21.623
				C3795.05,2414.416,3794.951,1959.346,3794.951,1504.275z M4856.813,2461.098c15.884-38.016,25.812-75.854,10.547-115.689
				c-4.799-12.521-6.578-25.873,3.329-37.191c14.169-16.191,28.787-31.994,43.385-47.801c12.685-13.734,25.124-13.365,36.581,1.563
				c26.664,34.736,57.52,66.26,79.148,104.885c6.723,12.004,15.688,22.773,23.865,33.934c2.822,3.854,6.859,6.932,11.777,4.016
				c4.104-2.438,3.104-6.998,1.369-10.359c-11.49-22.264-10.639-47.75-19.47-70.977c-16.224-42.662-23.285-87.967-26.199-133.152
				c-1.739-26.971-0.935-57.254,12.856-80.504c12.959-21.848,27.534-43.875,45.963-62.936
				c35.238-36.449,45.708-80.299,39.233-131.311c-8.817-69.502-32.121-135.787-41.146-205.09c-2.274-17.465-6.05-34.674-5.534-52.43
				c0.151-5.189-1.092-14.252,6.799-9.836c23.723,13.279,51.971,18.059,70.219,42.035c21.889,28.762,32.906,62.525,48.379,94.193
				c27.188,55.646,44.366,114.74,50.746,176.195c3.431,33.053,11.816,61.992,38.591,82.828
				c12.876,10.021,18.597,22.355,17.393,37.939c-2.605,33.701,6.284,65.529,14.214,97.707c6.423,26.072,16.754,52.156,19.752,77.762
				c5.708,48.74,15.334,97.707,15.884,146.361c0.754,66.199,20.044,129.154,24.506,194.326c0.3,4.389,1.688,9.924,4.649,12.727
				c35.748,33.863,64.043,77.104,119.652,84.564c39.553,5.305,55.544-8.346,47.734-48.254c-1.606-8.211-4.846-16.123-7.586-24.084
				c-8.052-23.385-21.896-44.02-31.9-66.424c-17.656-39.535-19.023-81.582-17.184-124.154c1.594-36.832,7.666-74.572-2.088-110.348
				c-9.915-36.367-11.474-72.545-10.928-109.441c0.492-33.125-1.798-66.082-5.301-99.035c-2.998-28.215-11.51-56.361-7.188-84.723
				c3.386-22.229-2.979-41.336-12.646-59.539c-7.332-13.803-13.928-27.801-16.572-42.82c-8.511-48.309-15.141-96.941-23.027-145.363
				c-9.175-56.33-22.018-111.85-37.571-166.256c-11.087-38.789-27.027-76.564-37.575-115.89
				c-12.906-48.115-20.59-97.611-41.571-143.601c-7.526-16.495-10.048-35.753-5.694-54.407
				c9.287-39.791,10.253-80.818,17.787-120.661c3.711-19.624-0.684-46.518,22.255-57.416c32.538-15.459,63.354-34.07,97.944-46.121
				c48.463-16.885,95.958-37.463,135.634-72.057c13.253-11.557,18.706-24.627,11.837-40.847
				c-16.493-38.955-31.774-78.807-62.43-109.605c-15.574-15.647-16.512-32.667-5.878-50.36
				c29.815-49.588,53.347-102.515,74.233-155.925c24.039-61.477,57.132-111.297,120.077-137.122
				c7.823-3.21,15.877-8.873,15.858-18.295c-0.036-16.858,11.609-24.416,23.225-31.799c14.913-9.481,30.504-17.9,45.816-26.752
				c7.818-4.521,18.324-7.379,15.362-19.728c-2.7-11.259-5.858-22.024-20.282-24.977c-9.464-1.938-17.881-2.626-26.852,1.41
				c-10.623,4.775-22.631,9.982-32.221-0.082c-9.881-10.368-1.617-21.654,2.163-32.284c3.898-10.957,8.319-21.787,16.847-29.949
				c27.377-26.208,31.995-58.244,24.632-93.469c-1.671-7.999-0.221-18.125-10.145-21.669c-10.048-3.589-16.894,3.244-24.63,8.759
				c-48.324,34.458-81.318,83.503-120.286,126.709c-27.237,30.199-49.651,63.805-53.144,107.379
				c-1.617,20.167-10.77,39.457-21.217,58.016c-17.063,30.312-36.938,57.772-59.805,84.085
				c-32.254,37.118-60.967,77.324-90.98,116.373c-23.64,30.757-41.407,34.874-75.398,16.75c-20.068-10.7-41.859-13.876-64.1-17.348
				c-35.438-5.536-72.74-1.128-106.143-17.708c-18.742-9.303-37.209-18.171-58.721-19.073c-16.558-0.692-24.787-9.495-24.14-26.984
				c0.573-15.491,2.819-30.504,6.253-45.598c16.885-74.243-27.923-154.734-99.273-176.767c-32.24-9.955-65.904-7.144-98.486-1.979
				c-56.279,8.922-81.459,37.569-93.239,93.596c-4.523,21.51-4.568,42.259-3.99,63.565c0.699,25.771-8.097,53.004,12.463,75.702
				c2.033,2.245,2.272,7.882,1.029,11.029c-6.179,15.628,2.671,31.997-3.194,47.772c-2.45,6.589-0.277,15.518,7.406,17.44
				c24.517,6.131,32.455,23.095,33.475,45.963c0.322,7.246,5.5,12.125,10.25,17.429c16.109,17.984,15.417,32.857-2.22,49.09
				c-26.159,24.075-49.054,50.964-69.359,80.008c-22.843,32.676-44.684,66.052-67.583,98.688
				c-7.609,10.841-19.498,15.405-29.401,4.403c-12.109-13.454-25.419-11.794-39.994-8.342c-27.629,6.542-55.738,11.888-83.934,7.837
				c-35.13-5.051-64.657,6.67-71.574,40.341c-10.788,52.51-37.702,96.858-60.617,143.563
				c-12.938,26.367-28.415,48.937-57.313,60.064c-12.797,4.927-26.693,10.53-36.184,19.818
				c-24.214,23.702-53.38,32.216-85.621,34.487c-9.362,0.659-20.027,1.157-24.632,10.088
				c-13.921,26.991-39.491,48.686-32.315,85.136c6.016,30.56-5.942,56.2-30.533,77.482c-31.352,27.133-60.64,56.582-85.953,89.924
				c-49.737,65.518-97.322,132.688-153.549,193.199c-29.439,31.682-45.652,72.49-66.21,110.133
				c-3.295,6.033-6.065,14.096,0.104,19.346c6.824,5.813,10.715-2.598,14.968-6.127c9.7-8.045,13.44-3.516,15.022,6.443
				c3.377,21.25,6.725,42.508,9.986,63.775c1.358,8.852-0.232,20.35,13.903,19.051c14.018-1.291,10.593-12.344,10.404-21.291
				c-0.246-11.545-0.778-23.104-0.474-34.637c0.172-6.543-2.166-16.76,5.992-17.879c9.847-1.35,7.302,9.713,8.661,15.629
				c2.402,10.467,3.102,21.314,5.168,31.877c1.529,7.816,4.884,15.617,14.072,16.051c11.052,0.523,10.424-9.242,11.861-16.463
				c1.647-8.285,2.423-16.75,4.315-24.969c1.185-5.148,3.021-10.824,9.452-11.83c6.524-1.018,9.294,4.256,12.5,8.541
				c5.99,8.01,11.819,16.152,18.07,23.953c3.199,3.99,6.204,10.93,12.2,8.439c7.02-2.918,5.044-10.908,3.742-16.424
				c-5.833-24.721-11.737-49.584-26.784-70.795c-8.868-12.5-3.736-16.486,9.127-16.092c3.799,0.115,7.553,1.389,11.343,2.045
				c7.719,1.338,14.228-0.734,16.621-8.627c2.42-7.988-4.419-10.67-9.881-13.25c-7.645-3.615-15.723-6.316-23.359-9.949
				c-23.298-11.078-25.295-14.943-9.754-35.389c55.781-73.369,117.894-141.326,181.251-208.145
				c8.904-9.391,18.909-10.172,27.878,0.197c13.862,16.027,32.104,26.988,49.627,37.305c19.739,11.619,40.166,24.826,66.448,20.377
				c23.396-3.963,30.123,4.063,22.744,27.768c-11.124,35.719-15.223,71.877-16.075,109.068c-0.51,22.162-4.97,44.346-8.906,66.295
				c-6.506,36.27-28.148,59.324-61.968,74.295c-25.565,11.316-46.414-0.463-68.957-6.553c-6.321-1.705-13.576-7.631-18.519,0.67
				c-4.987,8.377,1.385,14.438,7.302,19.631c8.838,7.758,19.683,11.896,30.344,16.365c19.696,8.256,32.124,21.121,35.936,43.887
				c3.829,22.863,7.76,45.387,6.777,68.646c-0.244,5.748-1.816,14.43,5.91,15.604c9.308,1.414,10.052-8.223,11.32-14.422
				c2.457-12.012,2.585-24.531,5.38-36.439c4.893-20.857,11.864-22.674,26.701-7.689c14.611,14.756,29.058,29.684,43.182,44.904
				c5.793,6.24,11.557,10.092,20.111,6.025c8.461-4.021,9.844-11.25,8.507-19.424c-0.742-4.525-2.518-8.881-3.318-13.4
				c-2.159-12.193-17.14-21.777-12.504-33.52c6.091-15.434,23.486-4.826,35.219-8.934c6.788-2.381,13.837-4.887,14.945-12.643
				c1.48-10.369-7.496-11.941-14.654-14.549c-7.945-2.893-15.859-5.881-23.865-8.6c-11.916-4.047-15.205-12.035-11.079-23.521
				c6.754-18.807,14.428-37.33,20.206-56.432c17.745-58.67,30.928-118.807,43.942-178.377c11.618-53.18,19.8-106.504,49.087-152.811
				c27.339-43.227,47.878-90.16,76.771-132.618c12.5-18.367,23.671-26.121,44.652-21.44c7.462,1.667,16.522,1.561,22.033-4.189
				c16.935-17.668,36.204-11.751,56.031-8.067c12.858,2.389,15.473,9.114,15.327,20.986c-0.307,25.284-0.077,50.66,1.777,75.862
				c1.938,26.348,26.888,45.112,51.594,39.84c10.456-2.23,15.658,1.031,13.939,11.209c-5.412,32.043-1.207,64.594-4.676,96.424
				c-5.892,54.045-30.402,102.566-52.591,151.436c-21.203,46.699-58.429,84.393-75.457,133.574
				c-1.886,5.449-7.133,9.938-11.383,14.33c-38.699,39.994-69.645,86.098-97.988,133.289
				c-47.905,79.758-94.202,160.309-156.64,230.068c-2.513,2.809-4.392,6.236-6.305,9.529
				c-32.585,56.045-73.69,105.248-120.6,149.719c-24.021,22.771-41.986,48.463-45.727,82.58
				c-1.146,10.449,0.722,13.813,11.904,16.719c38.216,9.93,70.816-6.482,104.169-19.432c16.89-6.559,34.508-12.41,38.318-35.244
				c1.543-9.232,17.411-16.842,20.627-7.113c8.681,26.25,28.209,18.535,44.524,18.336c32.983-0.4,33.626-2.029,33.204-34.5
				c-0.039-3.07,0-6.182,0.438-9.209c0.808-5.572,2.987-10.652,8.721-12.574c6.632-2.225,9.412,3.143,12.786,7.334
				c13.298,16.518,33.091,21.137,51.75,27.506c11.413,3.895,19.351-0.398,27.598-10.145c24.262-28.68,34.353-65.225,55.377-95.5
				c21.6-31.104,27.249-69.697,50.105-100.715c34.627-46.996,61.889-98.646,84.279-152.682c4.771-11.512,13.528-20.16,24.573-22.369
				c11.514-2.303,16.175,9.832,21.178,18.229c10.232,17.17,19.536,34.902,29.917,51.977c18.706,30.76,33.752,61.826,14.51,98.1
				c-20.695,39.016-33.928,83.494-76.507,106.662c-17.194,9.355-26.475,24.205-35.187,41.148
				c-10.898,21.201-9.111,49.244-28.509,64.689c-29.721,23.666-23.369,54.373-21,84.168c1.979,24.896,17.831,33.719,43.585,32.52
				c20.359-0.951,32.922-8.799,40.468-27.615c4.559-11.361,13.414-19.971,22.504-28.693c27.443-26.34,42.35-62.221,58.131-94.984
				c13.341-27.693,34.055-55.295,33.073-89.543c-0.156-5.477,4.859-12.52,12.468-10.521c6.903,1.814,4.695,8.566,4.228,13.813
				C4842.756,2403.666,4856.793,2431.332,4856.813,2461.098z"/>
			<path fill-rule="evenodd" clip-rule="evenodd" d="M4856.813,2461.098c-0.02-29.766-14.057-57.432-11.388-87.354
				c0.468-5.246,2.676-11.998-4.228-13.813c-7.608-1.998-12.624,5.045-12.468,10.521c0.981,34.248-19.732,61.85-33.073,89.543
				c-15.782,32.764-30.688,68.645-58.131,94.984c-9.091,8.723-17.945,17.332-22.504,28.693
				c-7.546,18.816-20.108,26.664-40.468,27.615c-25.755,1.199-41.607-7.623-43.585-32.52c-2.369-29.795-8.721-60.502,21-84.168
				c19.398-15.445,17.611-43.488,28.509-64.689c8.712-16.943,17.993-31.793,35.187-41.148
				c42.58-23.168,55.812-67.646,76.507-106.662c19.243-36.273,4.196-67.34-14.51-98.1c-10.381-17.074-19.685-34.807-29.917-51.977
				c-5.003-8.396-9.664-20.531-21.178-18.229c-11.044,2.209-19.802,10.857-24.573,22.369
				c-22.39,54.035-49.651,105.686-84.279,152.682c-22.856,31.018-28.505,69.611-50.105,100.715
				c-21.024,30.275-31.115,66.82-55.377,95.5c-8.248,9.746-16.186,14.039-27.598,10.145c-18.658-6.369-38.451-10.988-51.75-27.506
				c-3.375-4.191-6.154-9.559-12.786-7.334c-5.734,1.922-7.914,7.002-8.721,12.574c-0.438,3.027-0.476,6.139-0.438,9.209
				c0.422,32.471-0.221,34.1-33.204,34.5c-16.314,0.199-35.843,7.914-44.524-18.336c-3.217-9.729-19.084-2.119-20.627,7.113
				c-3.81,22.834-21.428,28.686-38.318,35.244c-33.353,12.949-65.953,29.361-104.169,19.432c-11.182-2.906-13.05-6.27-11.904-16.719
				c3.74-34.117,21.706-59.809,45.727-82.58c46.91-44.471,88.015-93.674,120.6-149.719c1.913-3.293,3.792-6.721,6.305-9.529
				c62.438-69.76,108.735-150.311,156.64-230.068c28.343-47.191,59.289-93.295,97.988-133.289c4.25-4.393,9.497-8.881,11.383-14.33
				c17.027-49.182,54.254-86.875,75.457-133.574c22.188-48.869,46.699-97.391,52.591-151.436c3.469-31.83-0.735-64.381,4.676-96.424
				c1.719-10.178-3.483-13.439-13.939-11.209c-24.706,5.271-49.656-13.492-51.594-39.84c-1.854-25.202-2.084-50.578-1.777-75.862
				c0.146-11.872-2.468-18.597-15.327-20.986c-19.827-3.684-39.096-9.601-56.031,8.067c-5.511,5.75-14.571,5.856-22.033,4.189
				c-20.981-4.681-32.153,3.073-44.652,21.44c-28.893,42.458-49.433,89.391-76.771,132.618
				c-29.288,46.307-37.47,99.631-49.087,152.811c-13.014,59.57-26.197,119.707-43.942,178.377
				c-5.777,19.102-13.452,37.625-20.206,56.432c-4.126,11.486-0.837,19.475,11.079,23.521c8.006,2.719,15.919,5.707,23.865,8.6
				c7.158,2.607,16.134,4.18,14.654,14.549c-1.107,7.756-8.157,10.262-14.945,12.643c-11.733,4.107-29.128-6.5-35.219,8.934
				c-4.636,11.742,10.346,21.326,12.504,33.52c0.801,4.52,2.576,8.875,3.318,13.4c1.337,8.174-0.045,15.402-8.507,19.424
				c-8.554,4.066-14.318,0.215-20.111-6.025c-14.124-15.221-28.571-30.148-43.182-44.904c-14.837-14.984-21.808-13.168-26.701,7.689
				c-2.795,11.908-2.923,24.428-5.38,36.439c-1.268,6.199-2.012,15.836-11.32,14.422c-7.726-1.174-6.154-9.855-5.91-15.604
				c0.983-23.26-2.948-45.783-6.777-68.646c-3.812-22.766-16.24-35.631-35.936-43.887c-10.661-4.469-21.505-8.607-30.344-16.365
				c-5.917-5.193-12.29-11.254-7.302-19.631c4.943-8.301,12.198-2.375,18.519-0.67c22.543,6.09,43.392,17.869,68.957,6.553
				c33.82-14.971,55.462-38.025,61.968-74.295c3.937-21.949,8.396-44.133,8.906-66.295c0.853-37.191,4.952-73.35,16.075-109.068
				c7.379-23.705,0.652-31.73-22.744-27.768c-26.283,4.449-46.709-8.758-66.448-20.377c-17.523-10.316-35.765-21.277-49.627-37.305
				c-8.969-10.369-18.974-9.588-27.878-0.197c-63.358,66.818-125.471,134.775-181.251,208.145
				c-15.541,20.445-13.544,24.311,9.754,35.389c7.636,3.633,15.714,6.334,23.359,9.949c5.461,2.58,12.301,5.262,9.881,13.25
				c-2.394,7.893-8.902,9.965-16.621,8.627c-3.79-0.656-7.543-1.93-11.343-2.045c-12.863-0.395-17.995,3.592-9.127,16.092
				c15.046,21.211,20.95,46.074,26.784,70.795c1.302,5.516,3.278,13.506-3.742,16.424c-5.996,2.49-9.001-4.449-12.2-8.439
				c-6.251-7.801-12.08-15.943-18.07-23.953c-3.206-4.285-5.976-9.559-12.5-8.541c-6.432,1.006-8.268,6.682-9.452,11.83
				c-1.893,8.219-2.668,16.684-4.315,24.969c-1.437,7.221-0.81,16.986-11.861,16.463c-9.188-0.434-12.542-8.234-14.072-16.051
				c-2.066-10.563-2.766-21.41-5.168-31.877c-1.358-5.916,1.187-16.979-8.661-15.629c-8.157,1.119-5.82,11.336-5.992,17.879
				c-0.305,11.533,0.228,23.092,0.474,34.637c0.189,8.947,3.614,20-10.404,21.291c-14.135,1.299-12.544-10.199-13.903-19.051
				c-3.262-21.268-6.609-42.525-9.986-63.775c-1.582-9.959-5.322-14.488-15.022-6.443c-4.252,3.529-8.144,11.939-14.968,6.127
				c-6.169-5.25-3.399-13.313-0.104-19.346c20.558-37.643,36.771-78.451,66.21-110.133
				c56.227-60.512,103.812-127.682,153.549-193.199c25.313-33.342,54.601-62.791,85.953-89.924
				c24.591-21.282,36.549-46.922,30.533-77.482c-7.176-36.45,18.394-58.145,32.315-85.136c4.604-8.931,15.27-9.429,24.632-10.088
				c32.241-2.271,61.407-10.785,85.621-34.487c9.491-9.288,23.387-14.891,36.184-19.818c28.897-11.128,44.375-33.698,57.313-60.064
				c22.915-46.705,49.83-91.053,60.617-143.563c6.917-33.671,36.443-45.392,71.574-40.341c28.196,4.051,56.304-1.295,83.934-7.837
				c14.575-3.452,27.885-5.112,39.994,8.342c9.903,11.002,21.792,6.438,29.401-4.403c22.899-32.636,44.74-66.011,67.583-98.688
				c20.305-29.044,43.2-55.934,69.359-80.008c17.636-16.233,18.329-31.106,2.22-49.09c-4.751-5.303-9.928-10.183-10.25-17.429
				c-1.02-22.868-8.958-39.832-33.475-45.963c-7.683-1.922-9.855-10.851-7.406-17.44c5.865-15.775-2.984-32.144,3.194-47.772
				c1.243-3.147,1.004-8.785-1.029-11.029c-20.56-22.698-11.764-49.931-12.463-75.702c-0.578-21.306-0.533-42.056,3.99-63.565
				c11.78-56.026,36.96-84.673,93.239-93.596c32.582-5.166,66.246-7.977,98.486,1.979c71.351,22.033,116.158,102.524,99.273,176.767
				c-3.434,15.094-5.68,30.106-6.253,45.598c-0.647,17.49,7.582,26.292,24.14,26.984c21.512,0.902,39.979,9.77,58.721,19.073
				c33.402,16.581,70.705,12.173,106.143,17.708c22.24,3.472,44.031,6.648,64.1,17.348c33.991,18.124,51.759,14.007,75.398-16.75
				c30.014-39.049,58.727-79.255,90.98-116.373c22.867-26.313,42.742-53.773,59.805-84.085c10.447-18.559,19.6-37.849,21.217-58.016
				c3.492-43.574,25.906-77.18,53.144-107.379c38.968-43.207,71.962-92.251,120.286-126.709c7.736-5.516,14.582-12.349,24.63-8.759
				c9.924,3.544,8.474,13.67,10.145,21.669c7.363,35.226,2.745,67.261-24.632,93.469c-8.527,8.162-12.948,18.992-16.847,29.949
				c-3.78,10.63-12.044,21.916-2.163,32.284c9.59,10.063,21.598,4.857,32.221,0.082c8.971-4.036,17.388-3.348,26.852-1.41
				c14.424,2.953,17.582,13.718,20.282,24.977c2.962,12.349-7.544,15.207-15.362,19.728c-15.313,8.852-30.903,17.271-45.816,26.752
				c-11.615,7.383-23.261,14.94-23.225,31.799c0.019,9.422-8.035,15.085-15.858,18.295
				c-62.945,25.825-96.038,75.646-120.077,137.122c-20.887,53.41-44.418,106.337-74.233,155.925
				c-10.634,17.693-9.696,34.713,5.878,50.36c30.655,30.799,45.937,70.651,62.43,109.605c6.869,16.219,1.416,29.29-11.837,40.847
				c-39.676,34.594-87.171,55.171-135.634,72.057c-34.591,12.051-65.406,30.662-97.944,46.121
				c-22.938,10.898-18.544,37.792-22.255,57.416c-7.534,39.843-8.5,80.87-17.787,120.661c-4.354,18.654-1.832,37.912,5.694,54.407
				c20.981,45.99,28.665,95.486,41.571,143.601c10.548,39.325,26.488,77.101,37.575,115.89
				c15.554,54.406,28.396,109.926,37.571,166.256c7.887,48.422,14.517,97.055,23.027,145.363c2.645,15.02,9.24,29.018,16.572,42.82
				c9.668,18.203,16.032,37.311,12.646,59.539c-4.322,28.361,4.189,56.508,7.188,84.723c3.503,32.953,5.793,65.91,5.301,99.035
				c-0.546,36.896,1.013,73.074,10.928,109.441c9.754,35.775,3.682,73.516,2.088,110.348c-1.84,42.572-0.473,84.619,17.184,124.154
				c10.004,22.404,23.849,43.039,31.9,66.424c2.74,7.961,5.979,15.873,7.586,24.084c7.81,39.908-8.182,53.559-47.734,48.254
				c-55.609-7.461-83.904-50.701-119.652-84.564c-2.962-2.803-4.35-8.338-4.649-12.727c-4.462-65.172-23.752-128.127-24.506-194.326
				c-0.55-48.654-10.176-97.621-15.884-146.361c-2.998-25.605-13.329-51.689-19.752-77.762
				c-7.93-32.178-16.819-64.006-14.214-97.707c1.204-15.584-4.517-27.918-17.393-37.939c-26.774-20.836-35.16-49.775-38.591-82.828
				c-6.38-61.455-23.559-120.549-50.746-176.195c-15.473-31.668-26.49-65.432-48.379-94.193
				c-18.248-23.977-46.496-28.756-70.219-42.035c-7.891-4.416-6.647,4.646-6.799,9.836c-0.516,17.756,3.26,34.965,5.534,52.43
				c9.025,69.303,32.329,135.588,41.146,205.09c6.475,51.012-3.995,94.861-39.233,131.311
				c-18.429,19.061-33.004,41.088-45.963,62.936c-13.791,23.25-14.596,53.533-12.856,80.504
				c2.914,45.186,9.976,90.49,26.199,133.152c8.831,23.227,7.979,48.713,19.47,70.977c1.735,3.361,2.734,7.922-1.369,10.359
				c-4.918,2.916-8.955-0.162-11.777-4.016c-8.178-11.16-17.143-21.93-23.865-33.934c-21.629-38.625-52.484-70.148-79.148-104.885
				c-11.457-14.928-23.896-15.297-36.581-1.563c-14.598,15.807-29.216,31.609-43.385,47.801c-9.907,11.318-8.128,24.67-3.329,37.191
				C4882.624,2385.244,4872.696,2423.082,4856.813,2461.098z M4894.465,1944.297c-2.229-8.135,3.01-18.318-6.146-23.328
				c-9.631-5.268-14.111,6.357-21.077,10.162c-8.046,4.395-16.095,8.934-24.562,12.389c-24.586,10.035-26.046,16.078-21.191,42.283
				c6.964,37.592,31.773,70.563,27.738,110.865c-0.939,9.357,0.112,20.727,10.999,22.76c12.946,2.416,16.452-10.037,18.749-19.275
				c7.846-31.557,23.814-61.242,16.227-96.27C4891.079,1984.861,4894.465,1964.211,4894.465,1944.297z"/>
			<path fill-rule="evenodd" clip-rule="evenodd" fill="none" d="M4894.465,1944.297c0,19.914-3.386,40.564,0.736,59.586
				c7.588,35.027-8.381,64.713-16.227,96.27c-2.297,9.238-5.803,21.691-18.749,19.275c-10.887-2.033-11.938-13.402-10.999-22.76
				c4.035-40.303-20.774-73.273-27.738-110.865c-4.854-26.205-3.395-32.248,21.191-42.283c8.467-3.455,16.516-7.994,24.562-12.389
				c6.966-3.805,11.446-15.43,21.077-10.162C4897.475,1925.979,4892.236,1936.162,4894.465,1944.297z"/>
		</g>
	</g>
</g>
</svg>
